# xmcd CD database file
#
# Track frame offsets:
#	150
#	14894
#	42084
#
# Disc length: 3350 seconds
#
# Revision: 0
# Processed by: cddbd v1.5.1PL2 Copyright (c) Steve Scherf et al.
# Submitted via: CDex 1.51
#
DISCID=200d1403
DTITLE=El Mena y su Eyeife Band - Que bola
DYEAR=2005
DGENRE=Salsa
TTITLE0=Que bola
TTITLE1=La confusion
TTITLE2=Videoclip Que bola
EXTD=YEAR: 2005
EXTT0=
EXTT1=
EXTT2=
PLAYORDER=
